<svg width="15" height="16" viewBox="0 0 15 16" fill="none" xmlns="http://www.w3.org/2000/svg">
<path d="M1.00001 6.25009C1.39792 0.877103 6.68949 1.00024 6.68949 1.00024C10.1311 1.00024 12.0563 3.74411 12.119 7.16359C12.1202 7.22818 12.1361 7.29212 12.1666 7.34912L13.5156 9.87836C13.5867 10.0116 13.4901 10.1725 13.3392 10.1725H11.7803C11.6699 10.1725 11.5803 10.262 11.5803 10.3725V12.7483C11.5803 12.8588 11.4908 12.9483 11.3803 12.9483H6.46029C6.34984 12.9483 6.26029 13.0378 6.26029 13.1483V14.8C6.26029 14.9105 6.17075 15 6.06029 15H1.20001C1.08955 15 1.00001 14.9105 1.00001 14.8V6.90851C1.00001 6.90195 0.999993 6.8954 1.00001 6.88887V6.25009Z" stroke="#5E667C"/>
<path d="M9.42765 6.12134C9.42765 7.7747 8.08734 9.11502 6.43398 9.11502C5.65404 9.11502 4.94376 8.81676 4.41098 8.32807M9.42765 6.12134C9.42765 4.46798 8.08734 3.12767 6.43398 3.12767M9.42765 6.12134H6.43398M6.43398 3.12767C4.78062 3.12767 3.44031 4.46798 3.44031 6.12134C3.44031 6.99476 3.81434 7.78082 4.41098 8.32807M6.43398 3.12767V6.12134M6.43398 6.12134L4.41098 8.32807" stroke="#5E667C"/>
</svg>
