<svg width="14" height="15" viewBox="0 0 14 15" fill="none" xmlns="http://www.w3.org/2000/svg">
<path d="M11.3693 2.33344H3C1.89543 2.33344 1 3.22887 1 4.33343V12.0001C1 13.1046 1.89543 14.0001 3 14.0001H11.3693C12.4739 14.0001 13.3693 13.1046 13.3693 12.0001V4.33344C13.3693 3.22887 12.4739 2.33344 11.3693 2.33344Z" stroke="#33A759" stroke-miterlimit="10" stroke-linecap="round" stroke-linejoin="round"/>
<path d="M1.13794 5.74973H13.2318" stroke="#33A759" stroke-miterlimit="10" stroke-linecap="round" stroke-linejoin="round"/>
<path d="M4.46924 3.83345V1.00012" stroke="#33A759" stroke-miterlimit="10" stroke-linecap="round" stroke-linejoin="round"/>
<path d="M9.90015 3.83332V1" stroke="#33A759" stroke-miterlimit="10" stroke-linecap="round" stroke-linejoin="round"/>
<path d="M5.37203 10.4139C5.83746 10.4139 6.21476 10.0366 6.21476 9.57113C6.21476 9.1057 5.83746 8.72839 5.37203 8.72839C4.9066 8.72839 4.5293 9.1057 4.5293 9.57113C4.5293 10.0366 4.9066 10.4139 5.37203 10.4139Z" fill="#33A759"/>
<path d="M9.05758 10.4139C9.523 10.4139 9.90031 10.0366 9.90031 9.57113C9.90031 9.1057 9.523 8.72839 9.05758 8.72839C8.59215 8.72839 8.21484 9.1057 8.21484 9.57113C8.21484 10.0366 8.59215 10.4139 9.05758 10.4139Z" fill="#33A759"/>
</svg>
